<svg width="24" height="24" viewBox="0 0 24 24" fill="none" xmlns="http://www.w3.org/2000/svg">
<path fill-rule="evenodd" clip-rule="evenodd" d="M7.17113 2.063C8.29078 2.01145 8.64781 2 11.5 2C14.3522 2 14.7092 2.01241 15.8279 2.063C16.9466 2.11359 17.7103 2.29209 18.3784 2.55078C19.0781 2.81518 19.7129 3.2285 20.2379 3.76305C20.7724 4.28709 21.1848 4.92091 21.4482 5.62154C21.7079 6.28972 21.8855 7.05336 21.937 8.17018C21.9885 9.29179 22 9.64874 22 12.5C22 15.3522 21.9875 15.7092 21.937 16.8289C21.8864 17.9457 21.7079 18.7093 21.4482 19.3775C21.1848 20.0782 20.7717 20.7131 20.2379 21.2379C19.7129 21.7724 19.0781 22.1848 18.3784 22.4482C17.7103 22.7079 16.9466 22.8855 15.8298 22.937C14.7092 22.9885 14.3522 23 11.5 23C8.64781 23 8.29078 22.9875 7.17113 22.937C6.05431 22.8864 5.29068 22.7079 4.6225 22.4482C3.92179 22.1848 3.28692 21.7717 2.76209 21.2379C2.22791 20.7135 1.81453 20.0789 1.55078 19.3784C1.29209 18.7103 1.11455 17.9466 1.063 16.8298C1.01145 15.7082 1 15.3512 1 12.5C1 9.64781 1.01241 9.29078 1.063 8.17209C1.11359 7.05336 1.29209 6.28972 1.55078 5.62154C1.81492 4.92099 2.22861 4.28643 2.76305 3.76209C3.28713 3.22803 3.92136 2.81465 4.62154 2.55078C5.28972 2.29209 6.05336 2.11455 7.17018 2.063H7.17113ZM15.743 3.953C14.6357 3.90241 14.3035 3.89191 11.5 3.89191C8.69649 3.89191 8.36431 3.90241 7.25701 3.953C6.23282 3.99978 5.67727 4.17063 5.3069 4.31478C4.81722 4.50568 4.46691 4.73191 4.09941 5.09941C3.75104 5.43832 3.48294 5.85091 3.31478 6.3069C3.17063 6.67727 2.99978 7.23282 2.953 8.25701C2.90241 9.36431 2.89191 9.69649 2.89191 12.5C2.89191 15.3035 2.90241 15.6357 2.953 16.743C2.99978 17.7671 3.17063 18.3227 3.31478 18.6931C3.48277 19.1484 3.751 19.5617 4.09941 19.9005C4.43827 20.249 4.85159 20.5172 5.3069 20.6852C5.67727 20.8294 6.23282 21.0002 7.25701 21.047C8.36431 21.0975 8.69556 21.1081 11.5 21.1081C14.3044 21.1081 14.6357 21.0975 15.743 21.047C16.7671 21.0002 17.3227 20.8294 17.6931 20.6852C18.1828 20.4943 18.5331 20.2681 18.9005 19.9005C19.249 19.5617 19.5172 19.1484 19.6852 18.6931C19.8294 18.3227 20.0002 17.7671 20.047 16.743C20.0975 15.6357 20.1081 15.3035 20.1081 12.5C20.1081 9.69649 20.0975 9.36431 20.047 8.25701C20.0002 7.23282 19.8294 6.67727 19.6852 6.3069C19.4943 5.81722 19.2681 5.46691 18.9005 5.09941C18.5616 4.75107 18.1491 4.48297 17.6931 4.31478C17.3227 4.17063 16.7671 3.99978 15.743 3.953ZM10.1589 15.7368C10.9079 16.0487 11.7418 16.0907 12.5184 15.8559C13.295 15.6211 13.9659 15.1239 14.4167 14.4494C14.8675 13.7749 15.07 12.9648 14.9898 12.1574C14.9096 11.3501 14.5517 10.5957 13.977 10.0229C13.6107 9.65683 13.1678 9.37655 12.6802 9.20215C12.1925 9.02783 11.6722 8.96376 11.1569 9.01459C10.6415 9.06541 10.1437 9.22986 9.69955 9.49618C9.25533 9.76242 8.87568 10.1239 8.58796 10.5545C8.30023 10.9851 8.11152 11.4742 8.03549 11.9864C7.95946 12.4987 7.9979 13.0215 8.14817 13.5171C8.29837 14.0127 8.55667 14.4689 8.90432 14.8527C9.25203 15.2365 9.68043 15.5385 10.1589 15.7368ZM7.68369 8.68369C8.1849 8.18256 8.77982 7.78502 9.43466 7.5138C10.0894 7.24257 10.7912 7.10297 11.5 7.10297C12.2087 7.10297 12.9105 7.24257 13.5653 7.5138C14.2201 7.78502 14.8151 8.18256 15.3163 8.68369C15.8174 9.1849 16.215 9.77982 16.4862 10.4347C16.7574 11.0894 16.897 11.7912 16.897 12.5C16.897 13.2087 16.7574 13.9105 16.4862 14.5653C16.215 15.2201 15.8174 15.8151 15.3163 16.3163C14.3041 17.3284 12.9314 17.897 11.5 17.897C10.0686 17.897 8.69584 17.3284 7.68369 16.3163C6.67158 15.3041 6.10297 13.9314 6.10297 12.5C6.10297 11.0686 6.67158 9.69584 7.68369 8.68369ZM18.094 7.90672C18.2181 7.78957 18.3176 7.64869 18.3864 7.49243C18.4551 7.33616 18.4918 7.16768 18.4943 6.99698C18.4968 6.82627 18.4651 6.65679 18.4008 6.49859C18.3367 6.34039 18.2414 6.19667 18.1207 6.07595C17.9999 5.95522 17.8563 5.85995 17.698 5.79577C17.5398 5.73158 17.3704 5.69979 17.1996 5.70228C17.0289 5.70477 16.8605 5.74149 16.7042 5.81025C16.5479 5.87902 16.407 5.97845 16.2899 6.10263C16.062 6.34416 15.9373 6.66497 15.9421 6.99698C15.947 7.32897 16.081 7.64602 16.3158 7.8808C16.5506 8.11558 16.8677 8.24964 17.1996 8.25443C17.5317 8.2593 17.8525 8.13456 18.094 7.90672Z" fill="#666666"/>
</svg>
