<svg width="24" height="24" viewBox="0 0 24 24" fill="none" xmlns="http://www.w3.org/2000/svg">
<path fill-rule="evenodd" clip-rule="evenodd" d="M17.0406 14.7828C16.7661 14.64 15.4204 13.9519 15.1698 13.8561C14.9193 13.7612 14.7369 13.7143 14.5536 13.9998C14.3713 14.2835 13.8472 14.9256 13.6879 15.1153C13.5276 15.306 13.3682 15.329 13.0947 15.1872C12.8211 15.0435 11.9387 14.7435 10.8933 13.7736C10.08 13.0185 9.53009 12.086 9.37072 11.8005C9.21142 11.5158 9.35325 11.3615 9.49051 11.2197C9.61389 11.0923 9.76407 10.8871 9.90127 10.7214C10.0385 10.5546 10.0836 10.4358 10.1748 10.2451C10.267 10.0553 10.2209 9.88951 10.1518 9.74677C10.0836 9.60396 9.53652 8.20189 9.30814 7.6317C9.08611 7.07683 8.86049 7.15253 8.69283 7.14295C8.53257 7.13528 8.35019 7.13337 8.16782 7.13337C7.98545 7.13337 7.68886 7.20428 7.43833 7.48987C7.18687 7.77449 6.48041 8.46351 6.48041 9.86558C6.48041 11.2666 7.46043 12.6208 7.59768 12.8115C7.73491 13.0013 9.52733 15.8781 12.2731 17.1115C12.927 17.4048 13.4364 17.5801 13.8333 17.7105C14.4892 17.928 15.0861 17.8974 15.5576 17.8236C16.0826 17.7421 17.1769 17.1345 17.4053 16.4694C17.6328 15.8044 17.6328 15.2341 17.5647 15.1153C17.4965 14.9965 17.3141 14.9256 17.0397 14.7828H17.0406ZM12.0465 21.8773H12.0428C10.412 21.8776 8.8111 21.4215 7.40793 20.5568L7.07634 20.3516L3.62968 21.2928L4.54983 17.7968L4.33338 17.4383C3.42164 15.9283 2.93914 14.1807 2.94163 12.3975C2.94347 7.17457 7.02753 2.92533 12.0502 2.92533C14.4818 2.92533 16.7679 3.91241 18.4866 5.70258C19.3344 6.58097 20.0063 7.62553 20.4635 8.77588C20.9208 9.92617 21.1542 11.1594 21.1504 12.4042C21.1486 17.6271 17.0645 21.8773 12.0465 21.8773ZM19.7946 4.3427C18.7797 3.27984 17.5722 2.4371 16.2421 1.8633C14.9119 1.28952 13.4855 0.996094 12.0455 1.00004C6.00882 1.00004 1.09395 6.11275 1.09211 12.3965C1.09119 14.4052 1.59502 16.3659 2.55385 18.0938L1 24L6.80647 22.4149C8.41271 23.3255 10.2127 23.8026 12.0419 23.8026H12.0465C18.0832 23.8026 22.9981 18.6899 22.9999 12.4051C23.0044 10.9076 22.7233 9.42391 22.1732 8.03998C21.623 6.65608 20.8145 5.39943 19.7946 4.3427Z" fill="#666666"/>
</svg>
