<svg version="1.1" baseProfile="tiny" id="svg-1" xmlns="http://www.w3.org/2000/svg" xmlns:xlink="http://www.w3.org/1999/xlink" x="0px" y="0px" width="58.8px" height="59px" viewBox="0 0 58.8 59" xml:space="preserve">
<g>
	<path fill="#E2400F" d="M25.1,14.2h0.9c0.5,0,0.9-0.4,0.9-0.9s-0.4-0.9-0.9-0.9h-0.9c-0.5,0-0.9,0.4-0.9,0.9S24.6,14.2,25.1,14.2z"></path>
	<path fill="#E2400F" d="M12.8,14.2h0.9c0.5,0,0.9-0.4,0.9-0.9s-0.4-0.9-0.9-0.9h-0.9c-0.5,0-0.9,0.4-0.9,0.9S12.3,14.2,12.8,14.2z"></path>
	<path fill="#E2400F" d="M14.6,23.8c0-1.4-1.2-2.6-2.6-2.6s-2.6,1.2-2.6,2.6c0,1.4,1.2,2.6,2.6,2.6S14.6,25.3,14.6,23.8z M11.1,23.8
		c0-0.5,0.4-0.9,0.9-0.9c0.5,0,0.9,0.4,0.9,0.9c0,0.5-0.4,0.9-0.9,0.9C11.5,24.7,11.1,24.3,11.1,23.8z"></path>
	<path fill="#E2400F" d="M52.9,24.7h1.8c0,0,0.1,0,0.1,0c0,0,0,0,0,0c0,0,0,0,0,0c0,0,0,0,0.1,0c0,0,0,0,0,0c0,0,0,0,0.1,0
		c0,0,0,0,0,0c0,0,0,0,0.1,0c0,0,0,0,0,0c0.1,0,0.2-0.1,0.2-0.2l1.7-1.7c0.2-0.2,0.3-0.4,0.3-0.6l0-7v0v0v0c0,0,0,0,0,0
		c0,0,0-0.1,0-0.1c0,0,0,0,0,0c0,0,0,0,0-0.1c0,0,0,0,0,0c0,0,0,0,0-0.1c0,0,0,0,0,0c0,0,0,0,0-0.1c0,0,0,0,0,0L56.4,13
		c-0.1-0.2-0.3-0.4-0.6-0.5l-12-2.6L33.4,2.2C33.3,2.1,33.1,2,32.9,2l-8.6,0c0,0-0.1,0-0.1,0c0,0-0.1,0-0.1,0l-9.5,0c0,0,0,0,0,0
		c0,0,0,0,0,0L8.5,2C8.2,2,7.9,2.1,7.7,2.4l-5.2,7.8c0,0,0,0.1-0.1,0.1c0,0,0,0,0,0c0,0.1-0.1,0.1-0.1,0.2c0,0,0,0,0,0
		c0,0,0,0.1,0,0.1v7c-0.2,0-0.5,0.1-0.6,0.3c-0.2,0.2-0.3,0.4-0.3,0.6l0,5.2c0,0,0,0,0,0.1c0,0,0,0,0,0c0,0,0,0.1,0,0.1c0,0,0,0,0,0
		c0,0,0,0.1,0,0.1c0,0,0,0,0,0c0,0,0,0,0,0.1c0,0,0,0,0,0c0,0,0,0,0,0c0,0,0,0,0,0c0,0,0,0,0,0c0.1,0.3,0.4,0.5,0.8,0.5c0,0,0,0,0,0
		h3.5c0.2,1.4,0.8,2.6,1.8,3.5H2.4c-0.5,0-0.9,0.4-0.9,0.9v2.6c0,0,0,0,0,0c0,0,0,0,0,0c0,0,0,0,0,0.1c0,0,0,0,0,0
		c0,0.1,0.1,0.3,0.2,0.4c0,0,0,0,0,0c0,0,0,0,0.1,0.1c0,0,0,0,0,0c0,0,0,0,0.1,0.1c0,0,0,0,0,0c0,0,0,0,0.1,0.1c0,0,0,0,0,0
		c0.1,0,0.1,0.1,0.2,0.1l21.8,10.1L2,52.7c0,0,0,0,0,0l0,0c0,0,0,0,0,0c0,0,0,0-0.1,0c0,0,0,0,0,0c0,0,0,0-0.1,0c0,0,0,0,0,0
		c0,0,0,0,0,0c0,0,0,0,0,0c0,0,0,0,0,0c0,0,0,0,0,0c0,0,0,0,0,0c0,0,0,0,0,0c0,0,0,0,0,0c0,0,0,0,0,0c0,0,0,0,0,0.1c0,0,0,0,0,0
		c0,0,0,0,0,0.1c0,0,0,0,0,0c0,0,0,0,0,0.1c0,0,0,0,0,0c0,0,0,0,0,0.1c0,0,0,0,0,0c0,0,0,0,0,0.1c0,0,0,0,0,0c0,0,0,0,0,0v2.6
		c0,0.5,0.4,0.9,0.9,0.9h54.1c0.5,0,0.9-0.4,0.9-0.9v-2.6c0,0,0,0,0,0c0,0,0,0,0-0.1c0,0,0,0,0,0c0,0,0,0,0,0c0,0,0,0,0,0
		c0,0,0,0,0,0c0,0,0,0,0-0.1c0,0,0,0,0,0c0,0,0,0,0-0.1c0,0,0,0,0,0c0,0,0,0,0,0c0,0,0,0,0,0c0,0,0,0,0,0c0,0,0,0,0,0c0,0,0,0,0,0
		c0,0,0,0,0,0c0,0,0,0,0,0c0,0,0,0,0,0c0,0,0,0,0,0c0,0,0,0,0,0c0,0,0,0-0.1,0c0,0,0,0,0,0c0,0,0,0-0.1,0c0,0,0,0,0,0l0,0
		c0,0,0,0,0,0L35,42.6l21.8-10.1c0.1,0,0.1-0.1,0.2-0.1c0,0,0,0,0,0c0,0,0,0,0.1-0.1c0,0,0,0,0,0c0,0,0,0,0.1-0.1c0,0,0,0,0,0
		c0.1-0.2,0.2-0.4,0.2-0.6v-2.6c0-0.5-0.4-0.9-0.9-0.9h-5.3C52.1,27.3,52.7,26.1,52.9,24.7z M55.1,14.2H53v-0.5l2,0.4L55.1,14.2z
		 M40.8,9.9H25.1V3.7l7.6,0L40.8,9.9z M12.8,9.9V5.5c0-1,0.8-1.7,1.7-1.7l8.7,0v6.1H12.8z M8.9,3.7l2.6,0c-0.3,0.5-0.5,1.1-0.5,1.7
		v5.2c0,0.5,0.4,0.9,0.9,0.9h31.3l7.9,1.7v1.8c0,0.5,0.4,0.9,0.9,0.9h3.5l0,5.8L54.4,23h-1.4c-0.4-3-3-5.2-6-5.2
		c-3.1,0-5.6,2.3-6,5.2H18c-0.4-3-3-5.2-6-5.2c-3.1,0-5.6,2.3-6,5.2H3.2l0-3.5h0.9c0.5,0,0.9-0.4,0.9-0.9c0-0.5-0.4-0.9-0.9-0.9
		v-2.6h1.7c0.5,0,0.9-0.4,0.9-0.9v-3.5c0-0.5-0.4-0.9-0.9-0.9h-1L8.9,3.7z M18,24.7h22.8c0.2,1.4,0.8,2.6,1.8,3.5H16.2
		C17.2,27.3,17.8,26.1,18,24.7z M5,11.6v1.7H4.1v-1.7H5z M7.6,23.8c0-2.4,2-4.4,4.4-4.4c2.4,0,4.4,2,4.4,4.4c0,2.3-1.9,4.3-4.2,4.4
		h-0.3C9.5,28.1,7.6,26.2,7.6,23.8z M6.3,32.6h2.8L27.3,41l-1.4,0.7L6.3,32.6z M32.5,41.8C32.5,41.8,32.5,41.8,32.5,41.8l-3.4,1.6
		c0,0-0.1,0-0.1,0L9.2,52.6H6.3l23.4-10.8c0,0,0.1,0,0.1-0.1l19.8-9.2h2.8L32.5,41.8z M29.4,45.2l16.1,7.5H13.3L29.4,45.2z M29.4,40
		l-16.1-7.5h32.2L29.4,40z M55.6,55.3H3.2v-0.9h52.4V55.3z M52.5,52.6h-2.8l-18.2-8.4l1.4-0.7L52.5,52.6z M55.6,29.9v0.9H9.4
		c0,0,0,0,0,0H3.2v-0.9h8.6c0.1,0,0.1,0,0.2,0c0.1,0,0.1,0,0.2,0h34.6c0.1,0,0.1,0,0.2,0c0.1,0,0.1,0,0.2,0H55.6z M46.7,28.2
		c-2.3-0.1-4.2-2-4.2-4.4c0-2.4,2-4.4,4.4-4.4c2.4,0,4.4,2,4.4,4.4c0,2.3-1.9,4.3-4.2,4.4H46.7z"></path>
	<path fill="#E2400F" d="M46.9,21.2c-1.4,0-2.6,1.2-2.6,2.6c0,1.4,1.2,2.6,2.6,2.6c1.4,0,2.6-1.2,2.6-2.6
		C49.5,22.4,48.3,21.2,46.9,21.2z M46.9,24.7c-0.5,0-0.9-0.4-0.9-0.9c0-0.5,0.4-0.9,0.9-0.9c0.5,0,0.9,0.4,0.9,0.9
		C47.7,24.3,47.4,24.7,46.9,24.7z"></path>
</g>
</svg>