<svg version="1.1" baseProfile="tiny" id="svg-1" xmlns="http://www.w3.org/2000/svg" xmlns:xlink="http://www.w3.org/1999/xlink" x="0px" y="0px" width="52px" height="59px" viewBox="0 0 52 59" xml:space="preserve">
<g>
	<g>
		<path fill="#E2400F" d="M50.4,52.6l-3.7-11c-0.3-1-1.4-1.6-2.5-1.2l-5.5,1.9c-1,0.3-1.6,1.4-1.2,2.5l0.4,1h-3.6v-2.9h-2.9V35h-1.9
			V15.6h6.8v-2.9H40v2.9c0,1.1,0.9,1.9,1.9,1.9h5.8c1.1,0,1.9-0.9,1.9-1.9V3.9c0-1.1-0.9-1.9-1.9-1.9H42C40.9,2,40,2.9,40,3.9v2.9
			h-3.9V3.9H16.7v2.9h-3.9V3.9C12.9,2.9,12,2,10.9,2H5.1C4,2,3.2,2.9,3.2,3.9v11.7c0,1.1,0.9,1.9,1.9,1.9h5.8c1.1,0,1.9-0.9,1.9-1.9
			v-2.9h3.9v2.9h6.8V35h-1.9v7.8h-2.9v2.9h-6.5l-1.4-4.2c-0.2-0.5-0.5-0.9-1-1.1c-0.5-0.2-1-0.3-1.5-0.1l-5.5,1.9
			c-1,0.3-1.6,1.4-1.2,2.5l3.7,11c0.2,0.5,0.5,0.9,1,1.1C6.5,56.9,6.8,57,7.1,57c0.2,0,0.4,0,0.6-0.1l5.5-1.9c1-0.3,1.6-1.4,1.2-2.5
			l-0.4-1h4.6v2.9h15.5v-2.9h5.6l1.4,4.2c0.2,0.5,0.5,0.9,1,1.1c0.3,0.1,0.6,0.2,0.9,0.2c0.2,0,0.4,0,0.6-0.1l5.5-1.9
			C50.2,54.7,50.8,53.6,50.4,52.6z M45.9,3.9h1.9v0.6l-1.9,1.9V3.9z M45.9,9.2l1.9-1.9l0,2.1l-1.9,1.9V9.2z M45.9,14.1l1.9-1.9v3.5
			h-1.9V14.1z M42,3.9h1.9v2.5L42,4.5V3.9z M42,7.3l1.9,1.9v2.1L42,9.4V7.3z M42,12.7v-0.6l1.9,1.9v1.5H42V12.7z M9,3.9h1.9v0.6
			L9,6.5V3.9z M9,9.2l1.9-1.9v2.1L9,11.3V9.2z M7,15.6H5.1v-3.5L7,14.1C7,14.1,7,15.6,7,15.6z M7,11.3L5.1,9.4V7.3L7,9.2
			C7,9.2,7,11.3,7,11.3z M7,6.5L5.1,4.5V3.9H7C7,3.9,7,6.5,7,6.5z M9,15.6v-1.5l1.9-1.9v0.6h0l0,2.9H9z M16.7,10.7h-3.9V8.8h3.9
			L16.7,10.7L16.7,10.7z M8.9,42.2l0.2,0.5l-1.2,2.5l-0.8-2.4L8.9,42.2z M3.4,44l1.8-0.6L6,45.8l-2.5-1.2L3.4,44z M5.1,49.2l-0.7-2
			l2.5,1.2l0.7,2L5.1,49.2z M7.1,55.1L6,51.8L8.5,53L9,54.4L7.1,55.1z M8.7,47.8l1.2-2.5l0.7,2l-1.2,2.5L8.7,47.8z M10.8,53.8
			l-0.5-1.5l1.2-2.5l1.1,3.3L10.8,53.8z M18.7,49.6h-5.2l-0.7-1.9h5.9L18.7,49.6L18.7,49.6z M44.9,42.2l0.2,0.5l-1.2,2.5L43,42.8
			L44.9,42.2z M36.2,8.8H40v1.9h-3.9V8.8z M23.5,13.7h-4.9V5.9h15.5v7.8h-4.9H23.5z M27.4,15.6V35h-1.9V15.6H27.4z M23.5,37h5.8v5.8
			h-5.8L23.5,37L23.5,37z M32.3,52.5H20.6v-7.8h1h9.7h1L32.3,52.5L32.3,52.5z M34.2,49.6v-1.9h4.3l0.7,1.9H34.2z M39.5,44.6L39.3,44
			l1.8-0.6l0.8,2.4L39.5,44.6z M41.1,49.2l-0.7-2l2.5,1.2l0.7,2L41.1,49.2z M43.1,55.1L42,51.8l2.5,1.2l0.5,1.5L43.1,55.1z
			 M44.7,47.8l1.2-2.5l0.7,2l-1.2,2.5L44.7,47.8z M46.8,53.8l-0.5-1.5l1.2-2.5l1.1,3.3L46.8,53.8z"></path>
	</g>
</g>
</svg>