<?xml version="1.0" encoding="UTF-8"?>
<!DOCTYPE svg PUBLIC "-//W3C//DTD SVG 1.1//EN" "http://www.w3.org/Graphics/SVG/1.1/DTD/svg11.dtd">
<!-- Creator: CorelDRAW 2021 (64-Bit) -->
<svg xmlns="http://www.w3.org/2000/svg" xml:space="preserve" width="297mm" height="50mm" version="1.1" style="shape-rendering:geometricPrecision; text-rendering:geometricPrecision; image-rendering:optimizeQuality; fill-rule:evenodd; clip-rule:evenodd"
viewBox="0 0 29700 5000"
 xmlns:xlink="http://www.w3.org/1999/xlink"
 xmlns:xodm="http://www.corel.com/coreldraw/odm/2003">
 <defs>
  <style type="text/css">
   <![CDATA[
    .fil1 {fill:#2E333F;fill-rule:nonzero}
    .fil0 {fill:#E2400F;fill-rule:nonzero}
   ]]>
  </style>
 </defs>
 <g id="Слой_x0020_1">
  <metadata id="CorelCorpID_0Corel-Layer"/>
  <g id="_2167690627360">
   <g>
    <path class="fil0" d="M5330.53 627.75c-119.44,-53.97 -259.22,-33.62 -358.31,52.2l-3510.61 3056.74c-138.9,121.21 -153.95,332.66 -32.74,471.56 66.36,76.09 159.25,115.02 252.15,115.02 77.86,0 155.71,-27.43 219.41,-82.28l782.99 -682.13 1504.04 0c184.91,0 334.43,-149.52 334.43,-334.43 0,-184.91 -149.52,-334.43 -334.43,-334.43l-735.21 0 1405.84 -1224.46 0 2322.41c0,184.91 149.51,334.43 334.42,334.43 184.91,0 334.43,-149.52 334.43,-334.43l0 -3055.85c-0.88,-130.94 -76.97,-250.38 -196.41,-304.35z"/>
    <path class="fil0" d="M8051.08 597.67l-1856.17 0c-184.91,0 -334.43,149.52 -334.43,334.43l0 3057.62c0,184.91 149.52,334.43 334.43,334.43 184.91,0 334.43,-149.52 334.43,-334.43l0 -2723.19 1521.74 0c447.67,0 812.18,364.5 812.18,812.18 0,447.67 -364.51,812.18 -812.18,812.18l-852.88 0c-184.91,0 -334.43,149.52 -334.43,334.43 0,184.91 149.52,334.43 334.43,334.43l852.88 0c816.6,0 1481.03,-664.44 1481.03,-1481.04 0,-816.61 -664.43,-1481.04 -1481.03,-1481.04z"/>
    <path class="fil0" d="M13842.52 898.48c-0.89,-4.43 -1.77,-8.85 -1.77,-14.16 -0.89,-6.19 -1.77,-12.38 -2.66,-17.69 -1.77,-7.08 -3.54,-14.16 -5.31,-21.24 -0.88,-3.53 -1.76,-7.07 -2.65,-10.61 -1.77,-7.08 -4.42,-14.16 -7.08,-20.35 -0.88,-3.54 -2.65,-6.19 -3.54,-9.73 -2.65,-6.2 -5.3,-12.39 -7.96,-17.7 -1.77,-3.54 -3.54,-7.96 -5.31,-11.5 -2.65,-4.42 -5.31,-9.73 -7.96,-14.16 -2.65,-4.42 -5.31,-9.73 -8.85,-14.15 -2.65,-3.54 -5.31,-7.08 -7.07,-10.62 -3.54,-5.31 -7.97,-10.61 -12.39,-15.92 -1.77,-2.66 -4.42,-5.31 -7.08,-7.97 -5.31,-5.3 -9.73,-11.5 -15.04,-16.81 -2.65,-2.65 -5.31,-4.42 -7.08,-7.07 -5.31,-5.31 -10.61,-9.74 -15.92,-15.04 -4.43,-3.54 -8.85,-7.08 -13.27,-10.62 -4.43,-2.65 -7.97,-6.19 -12.39,-8.85 -18.58,-12.38 -38.04,-23 -59.28,-31.85 -1.77,-0.88 -3.54,-0.88 -5.3,-1.77 -7.97,-3.54 -16.81,-6.19 -25.66,-8.84 -5.31,-1.77 -10.62,-2.66 -15.04,-3.54 -5.31,-1.77 -10.62,-2.66 -15.93,-4.43 -8.84,-1.77 -17.69,-2.65 -26.54,-4.42 -1.77,0 -4.42,-0.89 -6.19,-0.89 -22.12,-2.65 -45.12,-2.65 -67.24,0 -5.31,0.89 -10.62,1.77 -15.04,2.66 -5.31,0.88 -10.62,1.77 -16.81,2.65 -7.08,1.77 -14.16,3.54 -22.12,5.31 -3.54,0.89 -6.19,1.77 -9.73,2.66 -7.08,1.76 -14.16,4.42 -21.24,7.07 -2.65,0.89 -6.19,1.77 -8.84,3.54 -6.2,2.66 -12.39,5.31 -18.58,8.85 -3.54,1.77 -7.97,3.54 -11.5,5.31 -5.31,2.65 -9.74,5.31 -14.16,8.85 -4.42,2.65 -8.85,5.3 -14.16,7.96 -3.53,2.65 -7.07,5.31 -10.61,7.96 -5.31,3.54 -10.62,7.96 -15.93,11.5 -2.65,2.66 -5.31,4.43 -7.96,7.08 -5.31,4.42 -10.62,9.73 -15.93,15.04 -2.65,2.65 -4.42,5.31 -7.07,7.96 -5.31,5.31 -9.73,10.62 -14.16,15.93 -3.54,4.42 -7.08,9.73 -10.62,14.15 -2.65,3.54 -5.3,7.08 -7.96,11.5 -6.19,9.74 -12.38,19.47 -17.69,29.2l-1359.83 2512.63 -1363.37 -2512.63c-5.31,-10.62 -11.5,-20.35 -17.7,-29.2 -2.65,-4.42 -6.19,-7.96 -8.84,-11.5 -3.54,-4.42 -7.08,-9.73 -10.62,-14.15 -4.42,-5.31 -9.73,-10.62 -15.04,-15.93 -2.65,-2.65 -4.42,-5.31 -7.08,-7.96 -5.31,-5.31 -10.61,-9.73 -16.81,-15.04 -2.65,-2.65 -5.31,-4.42 -7.96,-7.08 -5.31,-4.42 -10.62,-7.96 -15.93,-12.38 -3.53,-2.66 -7.07,-5.31 -10.61,-7.08 -4.43,-2.66 -9.73,-6.2 -14.16,-8.85 -4.42,-2.65 -8.85,-5.31 -14.15,-7.96 -3.54,-1.77 -7.97,-3.54 -11.5,-5.31 -6.2,-2.65 -11.51,-5.31 -17.7,-7.96 -3.54,-1.77 -7.08,-2.66 -9.73,-3.54 -7.08,-2.66 -13.27,-5.31 -20.35,-7.08 -3.54,-0.88 -7.08,-1.77 -10.62,-2.65 -7.07,-1.77 -13.27,-3.54 -20.35,-5.31 -6.19,-0.89 -13.27,-1.77 -19.46,-2.66 -4.42,-0.88 -7.96,-1.77 -12.39,-1.77 -22.11,-2.65 -45.12,-2.65 -67.24,0 -0.88,0 -1.77,0 -3.53,0.89 -9.74,0.88 -19.47,2.65 -29.2,4.42 -4.42,0.89 -8.85,2.66 -14.16,3.54 -6.19,1.77 -11.5,2.66 -17.69,4.42 -7.96,2.66 -15.93,5.31 -23.89,8.85 -2.65,0.89 -4.42,1.77 -7.08,2.66 -21.23,8.84 -40.69,19.46 -59.27,31.85 -4.43,2.65 -7.97,6.19 -12.39,8.84 -4.42,3.54 -8.85,6.2 -13.27,10.62 -5.31,4.42 -10.62,9.73 -15.93,15.04 -2.65,2.66 -5.3,4.42 -7.07,7.08 -5.31,5.31 -9.74,10.62 -15.04,16.81 -2.66,2.65 -4.43,5.31 -7.08,7.96 -4.43,5.31 -7.96,10.62 -12.39,15.93 -2.65,3.54 -5.31,7.07 -7.08,10.61 -2.65,4.43 -6.19,9.74 -8.84,14.16 -2.66,4.42 -5.31,9.73 -7.97,14.15 -1.77,3.54 -3.53,7.97 -5.3,11.51 -2.66,6.19 -6.2,11.5 -7.97,17.69 -1.77,3.54 -2.65,6.19 -3.54,9.73 -2.65,7.08 -5.3,13.27 -7.07,20.35 -0.89,3.54 -1.77,7.08 -2.66,10.62 -1.77,7.08 -3.54,14.15 -5.31,21.23 -0.88,6.19 -1.77,11.5 -2.65,17.7 -0.88,4.42 -1.77,8.84 -1.77,14.15 -0.88,11.5 -1.77,23 -1.77,34.51l0 3055.85c0,184.91 149.52,334.43 334.43,334.43 184.91,0 334.43,-149.52 334.43,-334.43l0 -1739.38 1026.28 1895.98c58.4,107.94 171.64,175.18 293.73,175.18 122.98,0 235.34,-67.24 293.73,-175.18l1026.29 -1895.98 0 1736.73c0,184.91 149.52,334.43 334.43,334.43 184.91,0 334.43,-149.52 334.43,-334.43l0 -3055.86c0,-11.5 -0.89,-23 -1.77,-34.5z"/>
   </g>
   <g>
    <g>
     <path class="fil1" d="M15838.47 1562.91l-58.39 -160.14 -406.1 0 -59.27 160.14 -230.03 0 366.28 -946.66 253.03 0 364.51 946.66 -230.03 0zm-261 -744.94l-147.75 407.86 295.5 0 -147.75 -407.86z"/>
     <path class="fil1" d="M16183.51 1562.91l0 -946.66 498.1 0c180.49,0 272.5,115.01 272.5,241.53 0,119.44 -73.43,199.06 -163.67,216.76 100.86,15.92 181.37,113.24 181.37,232.68 0,141.56 -94.67,255.69 -275.15,255.69l-513.15 0zm565.34 -669.74c0,-59.28 -42.46,-103.51 -110.59,-103.51l-253.03 0 0 206.14 253.03 0c68.13,-0.89 110.59,-43.35 110.59,-102.63zm18.58 385.74c0,-59.28 -42.46,-110.59 -122.09,-110.59l-260.11 0 0 220.3 260.11 0c76.09,0 122.09,-41.58 122.09,-109.71z"/>
     <polygon class="fil1" points="17350.47,1562.91 17350.47,793.19 17073.55,793.19 17073.55,616.25 17829.11,616.25 17829.11,794.08 17553.96,794.08 17553.96,1563.79 17350.47,1563.79 "/>
     <path class="fil1" d="M17905.2 1090.46c0,-285.76 208.79,-490.14 493.68,-490.14 286.65,0 495.44,204.38 495.44,490.14 0,285.77 -208.79,490.14 -495.44,490.14 -284.89,-0.88 -493.68,-205.25 -493.68,-490.14zm782.1 0c0,-177.83 -113.25,-310.54 -288.42,-310.54 -174.3,0 -286.66,133.6 -286.66,310.54 0,176.07 112.36,310.54 286.66,310.54 175.17,0 288.42,-134.47 288.42,-310.54z"/>
     <path class="fil1" d="M19063.31 1562.91l0 -946.66 443.25 0c206.14,0 317.62,138.9 317.62,305.23 0,164.56 -113.25,305.23 -317.62,305.23l-241.53 0 0 336.2 -201.72 0zm554.72 -641.43c0,-79.62 -59.27,-127.4 -138.9,-127.4l-214.1 0 0 254.8 214.1 0c79.63,0 138.9,-49.54 138.9,-127.4z"/>
     <polygon class="fil1" points="19976.35,1562.91 19976.35,616.25 20646.09,616.25 20646.09,794.08 20177.18,794.08 20177.18,994.03 20635.47,994.03 20635.47,1171.86 20177.18,1171.86 20177.18,1385.96 20646.09,1385.96 20646.09,1563.79 19976.35,1563.79 "/>
     <polygon class="fil1" points="21653.8,1562.91 21653.8,900.25 21386.61,1562.91 21299.02,1562.91 21031.83,900.25 21031.83,1562.91 20830.11,1562.91 20830.11,616.25 21112.34,616.25 21342.37,1188.67 21572.4,616.25 21856.4,616.25 21856.4,1562.91 "/>
     <path class="fil1" d="M22025.38 1090.46c0,-285.76 208.8,-490.14 493.68,-490.14 286.65,0 495.45,204.38 495.45,490.14 0,285.77 -208.8,490.14 -495.45,490.14 -284.88,-0.88 -493.68,-205.25 -493.68,-490.14zm782.1 0c0,-177.83 -113.24,-310.54 -288.42,-310.54 -175.17,0 -286.65,133.6 -286.65,310.54 0,176.07 112.36,310.54 286.65,310.54 174.29,0 288.42,-134.47 288.42,-310.54z"/>
     <polygon class="fil1" points="23832,1562.91 23832,1165.67 23385.21,1165.67 23385.21,1562.91 23183.49,1562.91 23183.49,616.25 23385.21,616.25 23385.21,987.84 23832,987.84 23832,616.25 24034.6,616.25 24034.6,1562.91 "/>
     <polygon class="fil1" points="24466.35,1562.91 24466.35,793.19 24189.43,793.19 24189.43,616.25 24944.99,616.25 24944.99,794.08 24669.84,794.08 24669.84,1563.79 24466.35,1563.79 "/>
     <polygon class="fil1" points="25750.1,1562.91 25750.1,1165.67 25303.31,1165.67 25303.31,1562.91 25101.59,1562.91 25101.59,616.25 25303.31,616.25 25303.31,987.84 25750.1,987.84 25750.1,616.25 25952.7,616.25 25952.7,1562.91 "/>
     <path class="fil1" d="M26817.96 1562.91l-58.39 -160.14 -406.09 0 -59.28 160.14 -230.03 0 366.28 -946.66 253.04 0 364.5 946.66 -230.03 0zm-260.99 -744.94l-147.75 407.86 295.5 0 -147.75 -407.86z"/>
     <path class="fil1" d="M27121.43 1562.91l213.22 -360.97c-102.63,-23.89 -207.03,-113.25 -207.03,-281.34 0,-176.07 120.32,-305.24 317.62,-305.24l443.25 0 0 946.67 -201.72 0 0 -336.2 -145.98 0 -187.56 336.2 -231.8 0 0 0.88zm565.34 -514.03l0 -255.69 -211.45 0c-80.51,0 -141.56,48.67 -141.56,127.41 0,79.62 61.05,127.4 141.56,127.4l211.45 0 0 0.88z"/>
     <polygon class="fil1" points="15908.36,2861.69 15908.36,2199.03 15641.17,2861.69 15553.58,2861.69 15286.4,2199.03 15286.4,2861.69 15084.68,2861.69 15084.68,1915.03 15366.91,1915.03 15596.94,2487.45 15826.97,1915.03 16110.96,1915.03 16110.96,2861.69 "/>
     <path class="fil1" d="M16978.88 2861.69l-58.39 -160.13 -406.09 0 -59.28 160.13 -230.03 0 366.28 -946.66 253.04 0 364.5 946.66 -230.03 0zm-261.88 -744.94l-147.75 407.86 295.5 0 -147.75 -407.86z"/>
     <path class="fil1" d="M17229.26 2389.25c0,-291.08 220.3,-490.14 504.3,-490.14 208.79,0 329.12,113.24 396.36,231.8l-173.41 84.93c-39.81,-76.97 -124.75,-138.02 -222.95,-138.02 -171.64,0 -296.39,131.83 -296.39,310.54 0,178.72 124.75,310.54 296.39,310.54 98.2,0 183.14,-59.27 222.95,-138.01l173.41 84.04c-68.13,117.67 -187.57,232.69 -396.36,232.69 -284,0.88 -504.3,-197.3 -504.3,-488.37z"/>
     <polygon class="fil1" points="18495.31,2861.69 18495.31,2091.98 18218.39,2091.98 18218.39,1914.15 18973.95,1914.15 18973.95,2091.98 18698.8,2091.98 18698.8,2861.69 "/>
     <polygon class="fil1" points="19129.66,2861.69 19129.66,1915.03 19799.4,1915.03 19799.4,2092.86 19330.5,2092.86 19330.5,2292.81 19788.79,2292.81 19788.79,2470.64 19330.5,2470.64 19330.5,2684.75 19799.4,2684.75 19799.4,2862.58 19129.66,2862.58 "/>
     <path class="fil1" d="M19984.31 2861.69l0 -946.66 443.25 0c206.14,0 317.62,138.9 317.62,305.23 0,164.56 -113.25,305.24 -317.62,305.24l-241.53 0 0 336.19 -201.72 0zm555.61 -641.43c0,-79.62 -59.28,-127.4 -138.9,-127.4l-214.11 0 0 255.69 214.11 0c78.74,-0.88 138.9,-50.43 138.9,-128.29z"/>
     <path class="fil1" d="M20851.35 2389.25c0,-291.08 220.29,-490.14 504.29,-490.14 208.8,0 329.12,113.24 396.36,231.8l-173.41 84.93c-39.81,-76.97 -124.74,-138.02 -222.95,-138.02 -171.64,0 -296.38,131.83 -296.38,310.54 0,178.72 124.74,310.54 296.38,310.54 98.21,0 183.14,-59.27 222.95,-138.01l173.41 84.04c-68.12,117.67 -187.56,232.69 -396.36,232.69 -284,0.88 -504.29,-197.3 -504.29,-488.37z"/>
     <polygon class="fil1" points="22461.55,2861.69 22174.9,2483.03 22101.47,2570.62 22101.47,2861.69 21899.75,2861.69 21899.75,1915.03 22101.47,1915.03 22101.47,2337.93 22436.78,1915.03 22685.39,1915.03 22309.38,2359.17 22711.05,2861.69 "/>
     <path class="fil1" d="M23481.65 2861.69l-58.39 -160.13 -406.1 0 -59.27 160.13 -230.03 0 366.28 -946.66 253.03 0 364.51 946.66 -230.03 0zm-261 -744.94l-147.75 407.86 295.5 0 -147.75 -407.86z"/>
     <path class="fil1" d="M23785.11 2861.69l213.22 -360.97c-102.63,-23.88 -207.03,-113.24 -207.03,-281.34 0,-176.06 120.33,-305.23 317.62,-305.23l443.25 0 0 946.66 -201.72 0 0 -336.2 -145.98 0 -187.56 336.2 -231.8 0 0 0.88zm565.34 -514.02l0 -255.69 -211.45 0c-80.51,0 -141.55,48.66 -141.55,127.4 0,79.63 61.04,127.4 141.55,127.4l211.45 0 0 0.89z"/>
    </g>
    <g>
     <path class="fil1" d="M15084.68 4064.04c0,-157.48 117.67,-264.53 268.96,-264.53 103.51,0 167.21,53.97 206.14,115.01l-76.97 38.93c-24.78,-42.47 -73.44,-74.32 -129.17,-74.32 -100.86,0 -176.95,77.86 -176.95,184.91 0,107.05 75.2,184.91 176.95,184.91 55.73,0 104.39,-31.85 129.17,-74.32l76.97 38.93c-38.93,61.05 -101.75,115.02 -206.14,115.02 -151.29,0 -268.96,-107.94 -268.96,-264.54z"/>
     <polygon class="fil1" points="15685.41,4318.84 15685.41,3806.58 16036.65,3806.58 16036.65,3885.33 15775.65,3885.33 15775.65,4018.04 16031.34,4018.04 16031.34,4096.78 15775.65,4096.78 15775.65,4239.22 16036.65,4239.22 16036.65,4317.96 15685.41,4317.96 "/>
     <path class="fil1" d="M16182.63 4318.84l0 -512.26 224.72 0c107.05,0 167.21,73.44 167.21,160.14 0,86.7 -61.04,160.14 -167.21,160.14l-135.37 0 0 191.1 -89.35 0 0 0.88zm299.92 -351.23c0,-49.55 -37.16,-81.4 -87.59,-81.4l-122.98 0 0 162.79 122.98 0c51.32,0 87.59,-31.85 87.59,-81.39z"/>
     <path class="fil1" d="M16703.73 4318.84l0 -512.26 252.15 0c93.78,0 145.98,58.4 145.98,130.94 0,64.59 -41.58,107.06 -89.36,117.67 54.86,8.85 99.09,62.82 99.09,125.64 0,78.74 -53.08,138.01 -148.63,138.01l-259.23 0zm305.23 -365.39c0,-38.04 -25.65,-67.24 -72.54,-67.24l-143.33 0 0 132.71 143.33 0c46,0 72.54,-27.43 72.54,-65.47zm9.74 214.99c0,-38.04 -26.55,-70.78 -77.86,-70.78l-147.75 0 0 142.44 147.75 0c48.66,0 77.86,-26.54 77.86,-71.66z"/>
     <polygon class="fil1" points="17254.92,4318.84 17254.92,3806.58 17345.16,3806.58 17345.16,4162.25 17607.04,3806.58 17699.05,3806.58 17699.05,4318.84 17608.81,4318.84 17608.81,3953.45 17341.62,4318.84 "/>
     <path class="fil1" d="M17838.84 4064.04c0,-157.48 117.67,-264.53 268.96,-264.53 103.51,0 167.21,53.97 206.14,115.01l-76.97 38.93c-24.77,-42.47 -73.43,-74.32 -129.17,-74.32 -100.86,0 -176.95,77.86 -176.95,184.91 0,107.05 75.21,184.91 176.95,184.91 55.74,0 104.4,-31.85 129.17,-74.32l76.97 38.93c-38.93,61.05 -101.74,115.02 -206.14,115.02 -152.17,0 -268.96,-107.94 -268.96,-264.54z"/>
     <path class="fil1" d="M18774 4220.64c-48.66,0 -87.59,-38.93 -87.59,-86.71 0,-48.66 38.93,-87.58 87.59,-87.58 48.66,0 87.59,38.92 87.59,87.58 0,46.9 -38.93,86.71 -87.59,86.71z"/>
     <path class="fil1" d="M19234.06 4245.41l48.66 -59.28c32.74,38.05 96.44,61.93 151.29,61.93 72.55,0 116.78,-30.96 116.78,-77.85 0,-50.43 -45.12,-72.55 -123.86,-72.55l-102.63 0 0 -78.74 102.63 0c65.47,0 115.02,-20.35 115.02,-67.24 0,-47.78 -50.43,-71.66 -113.25,-71.66 -52.2,0 -104.4,19.46 -141.56,56.62l-46 -55.74c38.93,-46 110.59,-80.51 195.52,-80.51 110.59,0 194.64,52.2 194.64,138.02 0,68.12 -58.39,107.94 -111.47,117.67 49.54,4.42 118.55,45.12 118.55,124.75 0,86.7 -84.05,148.63 -202.6,148.63 -90.24,-0.88 -167.22,-38.04 -201.72,-84.05z"/>
     <path class="fil1" d="M20142.68 4318.84l-37.16 -98.2 -235.34 0 -37.16 98.2 -101.74 0 200.83 -512.26 112.36 0 200.84 512.26 -102.63 0zm-154.83 -421.13l-92.01 244.19 184.02 0 -92.01 -244.19z"/>
     <polygon class="fil1" points="20710.67,4318.84 20710.67,3886.21 20444.37,3886.21 20444.37,4318.84 20354.13,4318.84 20354.13,3806.58 20800.03,3806.58 20800.03,4318.84 "/>
     <path class="fil1" d="M21038.91 3942.83c0,73.44 36.27,106.17 103.51,106.17 39.82,0 77.86,-7.96 107.05,-19.46l0 -222.96 90.25 0 0 512.26 -90.25 0 0 -210.56c-30.08,10.61 -73.43,19.46 -115.89,19.46 -125.64,0 -184.03,-73.43 -184.03,-184.91l0 -136.25 90.24 0 0 136.25 -0.88 0z"/>
     <path class="fil1" d="M21860.82 4318.84l-37.16 -98.2 -235.33 0 -37.16 98.2 -101.75 0 200.84 -512.26 112.36 0 200.83 512.26 -102.63 0zm-154.82 -421.13l-92.02 244.19 184.03 0 -92.01 -244.19z"/>
     <path class="fil1" d="M22022.73 4064.04c0,-157.48 117.67,-264.53 268.96,-264.53 103.51,0 167.21,53.97 206.14,115.01l-76.97 38.93c-24.78,-42.47 -73.44,-74.32 -129.17,-74.32 -100.86,0 -176.95,77.86 -176.95,184.91 0,107.05 75.2,184.91 176.95,184.91 55.73,0 104.39,-31.85 129.17,-74.32l76.97 38.93c-38.93,61.05 -101.75,115.02 -206.14,115.02 -151.29,0 -268.96,-107.94 -268.96,-264.54z"/>
     <polygon class="fil1" points="22745.55,4318.84 22745.55,3886.21 22590.73,3886.21 22590.73,3807.47 22990.62,3807.47 22990.62,3886.21 22835.8,3886.21 22835.8,4318.84 "/>
     <polygon class="fil1" points="23120.68,4318.84 23120.68,3806.58 23210.92,3806.58 23210.92,4162.25 23472.8,3806.58 23564.81,3806.58 23564.81,4318.84 23474.57,4318.84 23474.57,3953.45 23207.38,4318.84 "/>
     <path class="fil1" d="M24062.03 4220.64c-48.66,0 -87.59,-38.93 -87.59,-86.71 0,-48.66 38.93,-87.58 87.59,-87.58 48.66,0 87.59,38.92 87.59,87.58 0,46.9 -38.93,86.71 -87.59,86.71z"/>
     <path class="fil1" d="M24558.36 4318.84l0 -512.26 224.73 0c107.05,0 167.21,73.44 167.21,160.14 0,86.7 -61.05,160.14 -167.21,160.14l-135.37 0 0 191.1 -89.36 0 0 0.88zm299.93 -351.23c0,-49.55 -37.16,-81.4 -87.59,-81.4l-122.98 0 0 162.79 122.98 0c51.31,0 87.59,-31.85 87.59,-81.39z"/>
     <polygon class="fil1" points="25078.59,4318.84 25078.59,3806.58 25429.82,3806.58 25429.82,3885.33 25168.83,3885.33 25168.83,4018.04 25424.51,4018.04 25424.51,4096.78 25168.83,4096.78 25168.83,4239.22 25429.82,4239.22 25429.82,4317.96 25078.59,4317.96 "/>
     <polygon class="fil1" points="26018.17,4318.84 26018.17,3938.41 25860.69,4318.84 25822.64,4318.84 25666.05,3938.41 25666.05,4318.84 25575.8,4318.84 25575.8,3806.58 25702.32,3806.58 25841.22,4143.67 25981.01,3806.58 26107.53,3806.58 26107.53,4318.84 "/>
     <path class="fil1" d="M26248.2 4064.04c0,-153.06 107.94,-264.53 261.88,-264.53 153.06,0 261.88,112.36 261.88,264.53 0,153.06 -107.94,264.54 -261.88,264.54 -153.94,0 -261.88,-112.37 -261.88,-264.54zm430.86 0c0,-106.17 -66.35,-184.91 -169.87,-184.91 -103.51,0 -169.86,78.74 -169.86,184.91 0,105.28 66.35,184.91 169.86,184.91 103.52,0 169.87,-80.51 169.87,-184.91z"/>
     <polygon class="fil1" points="27268.29,4318.84 27268.29,4095.01 27001.99,4095.01 27001.99,4318.84 26911.75,4318.84 26911.75,3806.58 27001.99,3806.58 27001.99,4016.27 27268.29,4016.27 27268.29,3806.58 27358.53,3806.58 27358.53,4318.84 "/>
     <polygon class="fil1" points="27643.42,4318.84 27643.42,3886.21 27488.59,3886.21 27488.59,3807.47 27888.49,3807.47 27888.49,3886.21 27733.66,3886.21 27733.66,4318.84 "/>
    </g>
   </g>
  </g>
 </g>
</svg>

